PathFileType	4	(X/Y/Z)	/Users/niels/Desktop/University/Third Semester/Perception and Action/Exam/Gymnastics Motion Tracking/Code for Gym Tracking/Analyzed Data/Webcam_Backflip/id1_5_baseline_Sports2D/id1_5_baseline_Sports2D_px_person00.trc
DataRate	CameraRate	NumFrames	NumMarkers	Units	OrigDataRate	OrigDataStartFrame	OrigNumFrames
29.87551867219917	29.87551867219917	10	22	m	29.87551867219917	0	241
Frame#	Time	Hip			RHip			RKnee			RAnkle			RBigToe			RSmallToe			RHeel			LHip			LKnee			LAnkle			LBigToe			LSmallToe			LHeel			Neck			Head			Nose			RShoulder			RElbow			RWrist			LShoulder			LElbow			LWrist		
		X1	Y1	Z1	X2	Y2	Z2	X3	Y3	Z3	X4	Y4	Z4	X5	Y5	Z5	X6	Y6	Z6	X7	Y7	Z7	X8	Y8	Z8	X9	Y9	Z9	X10	Y10	Z10	X11	Y11	Z11	X12	Y12	Z12	X13	Y13	Z13	X14	Y14	Z14	X15	Y15	Z15	X16	Y16	Z16	X17	Y17	Z17	X18	Y18	Z18	X19	Y19	Z19	X20	Y20	Z20	X21	Y21	Z21	X22	Y22	Z22
0	0.0	0.9218438963023724	-0.6000348251589226	0.0	0.9189481873811393	-0.5985840530219344	0.0	0.9189461277393438	-0.695561808162134	0.0	0.903023501000306	-0.8099113860241395	0.0	0.9464463245152315	-0.8258296905473858	0.0	0.9392108505047032	-0.8301758630045475	0.0	0.897235475612439	-0.8287295278391252	0.0	0.9261834780093161	-0.598583706556471	0.0	0.9232885490396068	-0.6955576894178696	0.0	0.9073649043471383	-0.8041253076927608	0.0	0.9493430328656062	-0.8214885396287284	0.0	0.9450015767288573	-0.8200402608462066	0.0	0.8986826345605605	-0.8214913337884854	0.0	0.9363173408815646	-0.4451531768570205	0.0	0.9971080022405486	-0.39883240791963287	0.0	0.9797409289924045	-0.43936028249958015	0.0	0.9146043609514621	-0.4581819257195161	0.0	0.8986835633459654	-0.5320001953725632	0.0	0.9261817084594653	-0.6014791894866347	0.0	0.9290781384818005	-0.4610777080419892	0.0	0.9175010757956856	-0.5320024661331726	0.0	0.9348701317309891	-0.594242051961539	0.0
1	0.03347222222222222	0.922468979535215	-0.600578272462631	0.0	0.9193010366000208	-0.5990891175406585	0.0	0.9189422519786167	-0.6968481296288442	0.0	0.9035258590056297	-0.809370920262485	0.0	0.9464229165781262	-0.8261650823715073	0.0	0.9389766376219215	-0.8303428792169616	0.0	0.8965787161079771	-0.8282355743881534	0.0	0.9269382106566989	-0.5990893496917294	0.0	0.9231121158767682	-0.6968398733843665	0.0	0.9074601906064901	-0.8043282763416563	0.0	0.9496743013199409	-0.8219563144408942	0.0	0.9448077823992059	-0.8203170732834628	0.0	0.8981030269456455	-0.8216864721964944	0.0	0.9364756719022208	-0.44448251869004585	0.0	0.9954426805411413	-0.39674936019504836	0.0	0.9803261995747546	-0.4378893368167907	0.0	0.915127326913732	-0.4577556126791008	0.0	0.8988295580315965	-0.5322994625225301	0.0	0.9268136337203935	-0.6021860768589907	0.0	0.9295098384609977	-0.4609434232739387	0.0	0.9164339506439646	-0.5327716406376773	0.0	0.9358232596454701	-0.5955537702555128	0.0
2	0.06694444444444445	0.9230028705867549	-0.6010271435465352	0.0	0.9195765774861562	-0.5994635774066103	0.0	0.9189877635798582	-0.6978887900906598	0.0	0.903847849965928	-0.8089354978744422	0.0	0.9463895128476876	-0.8264185275141923	0.0	0.9387265989934229	-0.8303952436451822	0.0	0.89613362712806	-0.8279162003465839	0.0	0.9275633487988152	-0.5994757193985663	0.0	0.9230314097927024	-0.6978759074317207	0.0	0.9075251251439153	-0.8044571278803749	0.0	0.9499058102424951	-0.8222737992765309	0.0	0.9446152066550563	-0.8204825254562045	0.0	0.8977037979646709	-0.8218196120938641	0.0	0.9365371293631136	-0.44401455743159324	0.0	0.9941032443676454	-0.395046185379734	0.0	0.9806670205574977	-0.4367630620384967	0.0	0.9155575185802974	-0.45749796541358784	0.0	0.8989619516968929	-0.5325566319596671	0.0	0.9273391962091304	-0.6027342467607757	0.0	0.9298688978678112	-0.4608396823227819	0.0	0.9155818233905879	-0.5332660618519894	0.0	0.9364560912621925	-0.5965370537661886	0.0
3	0.10041666666666667	0.923405965548807	-0.6013292939899271	0.0	0.9197633740985732	-0.5996517314811621	0.0	0.9191224230054779	-0.6985724453295696	0.0	0.9039234533736361	-0.8086754455042148	0.0	0.9463307549995629	-0.8265672486448975	0.0	0.9384455207158087	-0.8303051879251495	0.0	0.8959898530584711	-0.8278609091566157	0.0	0.9279752207419323	-0.5996974481393211	0.0	0.9230854136303924	-0.6985567758565334	0.0	0.9075620403736918	-0.8044955079174468	0.0	0.9499790556828072	-0.822384295139016	0.0	0.9444079379064373	-0.8205134151690284	0.0	0.8975634294420286	-0.821890906676046	0.0	0.9364683181407791	-0.44383702360591937	0.0	0.9932471231870434	-0.39390688927463374	0.0	0.9806553343568373	-0.4361662349631802	0.0	0.9158352453332269	-0.45747210245089504	0.0	0.8990700403905028	-0.532765608124988	0.0	0.927705930976703	-0.6030572398513904	0.0	0.9301076290534394	-0.460795667661269	0.0	0.9150405614169257	-0.5333744349835939	0.0	0.9365833361436403	-0.5970611688513312	0.0
4	0.1338888888888889	0.9236788839069556	-0.6014782322379698	0.0	0.9198771488237332	-0.5996776432459922	0.0	0.919346663541468	-0.6989518347423557	0.0	0.9038226145557132	-0.8086281760762615	0.0	0.9462692923563628	-0.8266462827073597	0.0	0.9381415818884681	-0.8301576791197601	0.0	0.8960934446705904	-0.8280480197520317	0.0	0.9281608297258592	-0.5997848811341489	0.0	0.9232663054817887	-0.6989396563902138	0.0	0.9076121310396194	-0.8045029780748821	0.0	0.9499376396916204	-0.8223404349369434	0.0	0.9442104547451545	-0.8204801585032321	0.0	0.8976532328250285	-0.8219381420744003	0.0	0.9363129320345523	-0.4438994608537936	0.0	0.9928088073579812	-0.3932943665208247	0.0	0.9803491018978601	-0.4360794307998223	0.0	0.9159539300225985	-0.45763248153716435	0.0	0.8991759259553305	-0.5329432721469607	0.0	0.9279078851867444	-0.603187379816874	0.0	0.9302398712831644	-0.46083581187788547	0.0	0.9147960101840873	-0.5331911211504682	0.0	0.9362295465156886	-0.5972205066562416	0.0
5	0.16736111111111113	0.9238438816744164	-0.6014898166147283	0.0	0.9199184611464369	-0.5995868827648102	0.0	0.9196137608893782	-0.6991692648172637	0.0	0.9036719722451186	-0.8087747804828586	0.0	0.9462467909847159	-0.8266984904887357	0.0	0.9378487153396594	-0.8300649332735186	0.0	0.8963305314307457	-0.8283557606581112	0.0	0.9281779829305645	-0.5997793430167101	0.0	0.9235444734769273	-0.6991735037882199	0.0	0.9077165821689376	-0.8045366584652468	0.0	0.9498995298404941	-0.8222430647903356	0.0	0.9441000344919345	-0.8204724795986912	0.0	0.8978969302507621	-0.8219810966586351	0.0	0.9361438382643	-0.444079710899934	0.0	0.9925789507888851	-0.39303367150969054	0.0	0.9799040524551098	-0.4363119183387203	0.0	0.915961017670469	-0.45789036958139845	0.0	0.8993230124092904	-0.5330969662454692	0.0	0.9279636391490733	-0.6032160873674439	0.0	0.9303212630000625	-0.46095560111948525	0.0	0.9147377695617867	-0.5329105092118468	0.0	0.9355550334641379	-0.5971892455540203	0.0
6	0.20083333333333334	0.9239357803190016	-0.601388487735144	0.0	0.9198945757675908	-0.599409885569583	0.0	0.9198598819920496	-0.6993377638843158	0.0	0.9035619337455579	-0.8090238559667164	0.0	0.9462658689582264	-0.8267374239882429	0.0	0.9376046018600759	-0.8300601761161343	0.0	0.8966060042172795	-0.8286231151231376	0.0	0.9281209831385414	-0.5996860209488215	0.0	0.9238636883289842	-0.6993790026134633	0.0	0.9078807328689059	-0.804586696962849	0.0	0.9499571235281192	-0.822172747078909	0.0	0.9441353165812255	-0.8205281271490895	0.0	0.8982190671554581	-0.8220136279347772	0.0	0.9360095417773472	-0.4442669623581293	0.0	0.9923489601114186	-0.39291627016604147	0.0	0.9794737281430912	-0.436606076615954	0.0	0.9159281188862073	-0.45816662934139446	0.0	0.8995209100845284	-0.5332197217873831	0.0	0.9279120217840161	-0.6032432604972748	0.0	0.9304027791391946	-0.46111464285700854	0.0	0.9147137162735753	-0.5326815270666516	0.0	0.9347483031890098	-0.5970884500551812	0.0
7	0.23430555555555554	0.9239905509014988	-0.6012007269320262	0.0	0.9198443095844794	-0.5991817928724826	0.0	0.9200400164939657	-0.6994815038694964	0.0	0.9035225687686858	-0.809265137052113	0.0	0.9462767750176008	-0.8267730397527362	0.0	0.9374244678046352	-0.8301053260331203	0.0	0.8968473832923699	-0.8287442448008799	0.0	0.9280764555630728	-0.599496834896604	0.0	0.9241490414282006	-0.6995854184197471	0.0	0.90807642293979	-0.8046070212751188	0.0	0.9500989695182191	-0.8221684015035009	0.0	0.9442807457889256	-0.8206375180245157	0.0	0.8985392197822522	-0.822022733516239	0.0	0.9359232447509127	-0.4444048721777132	0.0	0.9920261034775247	-0.3927816810580301	0.0	0.9791475689900705	-0.43677092661312045	0.0	0.9159122780627962	-0.45841024153532045	0.0	0.8997295322267823	-0.5333086330737453	0.0	0.9278101925709435	-0.603323477737359	0.0	0.9305065591345633	-0.4612626042935037	0.0	0.9146437841370603	-0.5325384281093711	0.0	0.9339857648952392	-0.5969767284666789	0.0
8	0.2677777777777778	0.9240551295569448	-0.6009627446036683	0.0	0.919830808498444	-0.5989603398219571	0.0	0.9201433465969541	-0.6995782805291323	0.0	0.9035436949170859	-0.8094420746721449	0.0	0.9462052548332908	-0.8268403892707652	0.0	0.9372959801589119	-0.8301680164890922	0.0	0.8970028413671827	-0.828715243025699	0.0	0.9280981510493995	-0.5992448812816044	0.0	0.9243492679462159	-0.6997661033865943	0.0	0.9082548932830142	-0.8045644398163774	0.0	0.9502169283599724	-0.8222354410225369	0.0	0.9444125675456828	-0.8207790542513244	0.0	0.8987642952903973	-0.8219978504830273	0.0	0.9358836720932829	-0.4444853721683883	0.0	0.9916440732944571	-0.3925543244707034	0.0	0.9789497011695881	-0.43673629724578655	0.0	0.9159444839070594	-0.45859436127134556	0.0	0.8999037582836985	-0.5333718557087681	0.0	0.9277248175357559	-0.6034515227130322	0.0	0.930615380781936	-0.4613594941281273	0.0	0.9145467068168617	-0.5324358681809235	0.0	0.933398117014287	-0.596896501063473	0.0
9	0.30125	0.9241875757364797	-0.6007267607117466	0.0	0.9199114812684661	-0.5988057439872152	0.0	0.9201923937995857	-0.6996153140186779	0.0	0.9035823447714152	-0.8095683041183449	0.0	0.946016998714491	-0.8269636693685453	0.0	0.9372093280877002	-0.830237037964497	0.0	0.8970671438475969	-0.8286180854955845	0.0	0.9281919851544488	-0.5990112999884637	0.0	0.9244682231879654	-0.6998836349609189	0.0	0.9083635191695468	-0.8044607145414907	0.0	0.9501977035528818	-0.8223516961019594	0.0	0.9444115885231447	-0.8209231332470344	0.0	0.8988197995424756	-0.8219358161156599	0.0	0.9359033915313941	-0.44451436501294217	0.0	0.9912823633005244	-0.3922358723447828	0.0	0.9788560648012352	-0.43651979140554437	0.0	0.9160444138814527	-0.4587113079778457	0.0	0.9000399597300646	-0.5334258545882113	0.0	0.9277103728077597	-0.6035883205026237	0.0	0.9306850507857272	-0.46138843893424664	0.0	0.9144859715940469	-0.5323236387968544	0.0	0.933048037233537	-0.5968823277329963	0.0
